<?xml version="1.0" encoding="utf-8" standalone="no"?>
<!DOCTYPE svg PUBLIC "-//W3C//DTD SVG 1.1//EN"
  "http://www.w3.org/Graphics/SVG/1.1/DTD/svg11.dtd">
<svg xmlns:xlink="http://www.w3.org/1999/xlink" width="468pt" height="468pt" viewBox="0 0 468 468" xmlns="http://www.w3.org/2000/svg" version="1.1">
 <metadata>
  <rdf:RDF xmlns:dc="http://purl.org/dc/elements/1.1/" xmlns:cc="http://creativecommons.org/ns#" xmlns:rdf="http://www.w3.org/1999/02/22-rdf-syntax-ns#">
   <cc:Work>
    <dc:type rdf:resource="http://purl.org/dc/dcmitype/StillImage"/>
    <dc:date>2026-07-17T16:57:56.634456</dc:date>
    <dc:format>image/svg+xml</dc:format>
    <dc:creator>
     <cc:Agent>
      <dc:title>Matplotlib v3.10.9, https://matplotlib.org/</dc:title>
     </cc:Agent>
    </dc:creator>
   </cc:Work>
  </rdf:RDF>
 </metadata>
 <defs>
  <style type="text/css">*{stroke-linejoin: round; stroke-linecap: butt}</style>
 </defs>
 <g id="figure_1">
  <g id="patch_1">
   <path d="M 0 468 
L 468 468 
L 468 0 
L 0 0 
z
" style="fill: #ffffff"/>
  </g>
  <g id="axes_1">
   <g id="patch_2">
    <path d="M 40.083333 387.2466 
L 440.73 387.2466 
L 440.73 48.36 
L 40.083333 48.36 
z
" style="fill: #ffffff"/>
   </g>
   <g id="matplotlib.axis_1">
    <g id="xtick_1">
     <g id="line2d_1">
      <path d="M 69.760864 387.2466 
L 69.760864 48.36 
" clip-path="url(#p56e74188ed)" style="fill: none; stroke: #eeeeee; stroke-width: 0.6; stroke-linecap: square"/>
     </g>
     <g id="line2d_2">
      <defs>
       <path id="m71e48401da" d="M 0 0 
L 0 3.5 
" style="stroke: #141414; stroke-width: 0.8"/>
      </defs>
      <g>
       <use xlink:href="#m71e48401da" x="69.760864" y="387.2466" style="fill: #141414; stroke: #141414; stroke-width: 0.8"/>
      </g>
     </g>
     <g id="text_1">
      <text style="font-size: 9px; font-family: 'Helvetica Neue'; text-anchor: middle; fill: #141414" x="69.760864" y="400.673162" transform="rotate(-0 69.760864 400.673162)">−10</text>
     </g>
    </g>
    <g id="xtick_2">
     <g id="line2d_3">
      <path d="M 143.954691 387.2466 
L 143.954691 48.36 
" clip-path="url(#p56e74188ed)" style="fill: none; stroke: #eeeeee; stroke-width: 0.6; stroke-linecap: square"/>
     </g>
     <g id="line2d_4">
      <g>
       <use xlink:href="#m71e48401da" x="143.954691" y="387.2466" style="fill: #141414; stroke: #141414; stroke-width: 0.8"/>
      </g>
     </g>
     <g id="text_2">
      <text style="font-size: 9px; font-family: 'Helvetica Neue'; text-anchor: middle; fill: #141414" x="143.954691" y="400.673162" transform="rotate(-0 143.954691 400.673162)">0</text>
     </g>
    </g>
    <g id="xtick_3">
     <g id="line2d_5">
      <path d="M 218.148519 387.2466 
L 218.148519 48.36 
" clip-path="url(#p56e74188ed)" style="fill: none; stroke: #eeeeee; stroke-width: 0.6; stroke-linecap: square"/>
     </g>
     <g id="line2d_6">
      <g>
       <use xlink:href="#m71e48401da" x="218.148519" y="387.2466" style="fill: #141414; stroke: #141414; stroke-width: 0.8"/>
      </g>
     </g>
     <g id="text_3">
      <text style="font-size: 9px; font-family: 'Helvetica Neue'; text-anchor: middle; fill: #141414" x="218.148519" y="400.673162" transform="rotate(-0 218.148519 400.673162)">10</text>
     </g>
    </g>
    <g id="xtick_4">
     <g id="line2d_7">
      <path d="M 292.342346 387.2466 
L 292.342346 48.36 
" clip-path="url(#p56e74188ed)" style="fill: none; stroke: #eeeeee; stroke-width: 0.6; stroke-linecap: square"/>
     </g>
     <g id="line2d_8">
      <g>
       <use xlink:href="#m71e48401da" x="292.342346" y="387.2466" style="fill: #141414; stroke: #141414; stroke-width: 0.8"/>
      </g>
     </g>
     <g id="text_4">
      <text style="font-size: 9px; font-family: 'Helvetica Neue'; text-anchor: middle; fill: #141414" x="292.342346" y="400.673162" transform="rotate(-0 292.342346 400.673162)">20</text>
     </g>
    </g>
    <g id="xtick_5">
     <g id="line2d_9">
      <path d="M 366.536173 387.2466 
L 366.536173 48.36 
" clip-path="url(#p56e74188ed)" style="fill: none; stroke: #eeeeee; stroke-width: 0.6; stroke-linecap: square"/>
     </g>
     <g id="line2d_10">
      <g>
       <use xlink:href="#m71e48401da" x="366.536173" y="387.2466" style="fill: #141414; stroke: #141414; stroke-width: 0.8"/>
      </g>
     </g>
     <g id="text_5">
      <text style="font-size: 9px; font-family: 'Helvetica Neue'; text-anchor: middle; fill: #141414" x="366.536173" y="400.673162" transform="rotate(-0 366.536173 400.673162)">30</text>
     </g>
    </g>
    <g id="xtick_6">
     <g id="line2d_11">
      <path d="M 440.73 387.2466 
L 440.73 48.36 
" clip-path="url(#p56e74188ed)" style="fill: none; stroke: #eeeeee; stroke-width: 0.6; stroke-linecap: square"/>
     </g>
     <g id="line2d_12">
      <g>
       <use xlink:href="#m71e48401da" x="440.73" y="387.2466" style="fill: #141414; stroke: #141414; stroke-width: 0.8"/>
      </g>
     </g>
     <g id="text_6">
      <text style="font-size: 9px; font-family: 'Helvetica Neue'; text-anchor: middle; fill: #141414" x="440.73" y="400.673162" transform="rotate(-0 440.73 400.673162)">40</text>
     </g>
    </g>
    <g id="text_7">
     <text style="font-size: 9.5px; font-family: 'Helvetica Neue'; text-anchor: middle; fill: #141414" x="240.406667" y="413.39035" transform="rotate(-0 240.406667 413.39035)">Quissly advantage (pp); right of zero favors Quissly</text>
    </g>
   </g>
   <g id="matplotlib.axis_2"/>
   <g id="line2d_13">
    <path d="M 163.991476 87.312483 
L 189.920735 87.312483 
" clip-path="url(#p56e74188ed)" style="fill: none; stroke: #ef4444; stroke-width: 1.6"/>
   </g>
   <g id="line2d_14">
    <path d="M 163.991476 90.039157 
L 163.991476 84.585809 
" clip-path="url(#p56e74188ed)" style="fill: none; stroke: #ef4444; stroke-width: 1.4; stroke-linecap: square"/>
   </g>
   <g id="line2d_15">
    <path d="M 189.920735 90.039157 
L 189.920735 84.585809 
" clip-path="url(#p56e74188ed)" style="fill: none; stroke: #ef4444; stroke-width: 1.4; stroke-linecap: square"/>
   </g>
   <g id="line2d_16">
    <defs>
     <path id="m8cd1348903" d="M 0 3 
C 0.795609 3 1.55874 2.683901 2.12132 2.12132 
C 2.683901 1.55874 3 0.795609 3 0 
C 3 -0.795609 2.683901 -1.55874 2.12132 -2.12132 
C 1.55874 -2.683901 0.795609 -3 0 -3 
C -0.795609 -3 -1.55874 -2.683901 -2.12132 -2.12132 
C -2.683901 -1.55874 -3 -0.795609 -3 0 
C -3 0.795609 -2.683901 1.55874 -2.12132 2.12132 
C -1.55874 2.683901 -0.795609 3 0 3 
z
" style="stroke: #ef4444"/>
    </defs>
    <g clip-path="url(#p56e74188ed)">
     <use xlink:href="#m8cd1348903" x="176.956106" y="87.312483" style="fill: #ef4444; stroke: #ef4444"/>
    </g>
   </g>
   <g id="line2d_17">
    <path d="M 220.565011 106.788724 
L 251.208546 106.788724 
" clip-path="url(#p56e74188ed)" style="fill: none; stroke: #ec4899; stroke-width: 1.6"/>
   </g>
   <g id="line2d_18">
    <path d="M 220.565011 109.515398 
L 220.565011 104.06205 
" clip-path="url(#p56e74188ed)" style="fill: none; stroke: #ec4899; stroke-width: 1.4; stroke-linecap: square"/>
   </g>
   <g id="line2d_19">
    <path d="M 251.208546 109.515398 
L 251.208546 104.06205 
" clip-path="url(#p56e74188ed)" style="fill: none; stroke: #ec4899; stroke-width: 1.4; stroke-linecap: square"/>
   </g>
   <g id="line2d_20">
    <defs>
     <path id="m7458bf4646" d="M 0 3 
C 0.795609 3 1.55874 2.683901 2.12132 2.12132 
C 2.683901 1.55874 3 0.795609 3 0 
C 3 -0.795609 2.683901 -1.55874 2.12132 -2.12132 
C 1.55874 -2.683901 0.795609 -3 0 -3 
C -0.795609 -3 -1.55874 -2.683901 -2.12132 -2.12132 
C -2.683901 -1.55874 -3 -0.795609 -3 0 
C -3 0.795609 -2.683901 1.55874 -2.12132 2.12132 
C -1.55874 2.683901 -0.795609 3 0 3 
z
" style="stroke: #ec4899"/>
    </defs>
    <g clip-path="url(#p56e74188ed)">
     <use xlink:href="#m7458bf4646" x="235.886779" y="106.788724" style="fill: #ec4899; stroke: #ec4899"/>
    </g>
   </g>
   <g id="line2d_21">
    <path d="M 254.155525 126.264966 
L 287.746038 126.264966 
" clip-path="url(#p56e74188ed)" style="fill: none; stroke: #10b981; stroke-width: 1.6"/>
   </g>
   <g id="line2d_22">
    <path d="M 254.155525 128.991639 
L 254.155525 123.538292 
" clip-path="url(#p56e74188ed)" style="fill: none; stroke: #10b981; stroke-width: 1.4; stroke-linecap: square"/>
   </g>
   <g id="line2d_23">
    <path d="M 287.746038 128.991639 
L 287.746038 123.538292 
" clip-path="url(#p56e74188ed)" style="fill: none; stroke: #10b981; stroke-width: 1.4; stroke-linecap: square"/>
   </g>
   <g id="line2d_24">
    <defs>
     <path id="m2a04d8fc8f" d="M 0 3 
C 0.795609 3 1.55874 2.683901 2.12132 2.12132 
C 2.683901 1.55874 3 0.795609 3 0 
C 3 -0.795609 2.683901 -1.55874 2.12132 -2.12132 
C 1.55874 -2.683901 0.795609 -3 0 -3 
C -0.795609 -3 -1.55874 -2.683901 -2.12132 -2.12132 
C -2.683901 -1.55874 -3 -0.795609 -3 0 
C -3 0.795609 -2.683901 1.55874 -2.12132 2.12132 
C -1.55874 2.683901 -0.795609 3 0 3 
z
" style="stroke: #10b981"/>
    </defs>
    <g clip-path="url(#p56e74188ed)">
     <use xlink:href="#m2a04d8fc8f" x="270.65549" y="126.264966" style="fill: #10b981; stroke: #10b981"/>
    </g>
   </g>
   <g id="line2d_25">
    <path d="M 350.801888 145.741207 
L 389.695776 145.741207 
" clip-path="url(#p56e74188ed)" style="fill: none; stroke: #f59e0b; stroke-width: 1.6"/>
   </g>
   <g id="line2d_26">
    <path d="M 350.801888 148.467881 
L 350.801888 143.014533 
" clip-path="url(#p56e74188ed)" style="fill: none; stroke: #f59e0b; stroke-width: 1.4; stroke-linecap: square"/>
   </g>
   <g id="line2d_27">
    <path d="M 389.695776 148.467881 
L 389.695776 143.014533 
" clip-path="url(#p56e74188ed)" style="fill: none; stroke: #f59e0b; stroke-width: 1.4; stroke-linecap: square"/>
   </g>
   <g id="line2d_28">
    <defs>
     <path id="mefc39786a8" d="M 0 3 
C 0.795609 3 1.55874 2.683901 2.12132 2.12132 
C 2.683901 1.55874 3 0.795609 3 0 
C 3 -0.795609 2.683901 -1.55874 2.12132 -2.12132 
C 1.55874 -2.683901 0.795609 -3 0 -3 
C -0.795609 -3 -1.55874 -2.683901 -2.12132 -2.12132 
C -2.683901 -1.55874 -3 -0.795609 -3 0 
C -3 0.795609 -2.683901 1.55874 -2.12132 2.12132 
C -1.55874 2.683901 -0.795609 3 0 3 
z
" style="stroke: #f59e0b"/>
    </defs>
    <g clip-path="url(#p56e74188ed)">
     <use xlink:href="#mefc39786a8" x="370.248832" y="145.741207" style="fill: #f59e0b; stroke: #f59e0b"/>
    </g>
   </g>
   <g id="line2d_29">
    <path d="M 273.238177 196.379434 
L 302.314738 196.379434 
" clip-path="url(#p56e74188ed)" style="fill: none; stroke: #ef4444; stroke-width: 1.6"/>
   </g>
   <g id="line2d_30">
    <path d="M 273.238177 199.106108 
L 273.238177 193.652761 
" clip-path="url(#p56e74188ed)" style="fill: none; stroke: #ef4444; stroke-width: 1.4; stroke-linecap: square"/>
   </g>
   <g id="line2d_31">
    <path d="M 302.314738 199.106108 
L 302.314738 193.652761 
" clip-path="url(#p56e74188ed)" style="fill: none; stroke: #ef4444; stroke-width: 1.4; stroke-linecap: square"/>
   </g>
   <g id="line2d_32">
    <g clip-path="url(#p56e74188ed)">
     <use xlink:href="#m8cd1348903" x="287.638457" y="196.379434" style="fill: #ef4444; stroke: #ef4444"/>
    </g>
   </g>
   <g id="line2d_33">
    <path d="M 307.663371 215.855676 
L 338.096195 215.855676 
" clip-path="url(#p56e74188ed)" style="fill: none; stroke: #ec4899; stroke-width: 1.6"/>
   </g>
   <g id="line2d_34">
    <path d="M 307.663371 218.58235 
L 307.663371 213.129002 
" clip-path="url(#p56e74188ed)" style="fill: none; stroke: #ec4899; stroke-width: 1.4; stroke-linecap: square"/>
   </g>
   <g id="line2d_35">
    <path d="M 338.096195 218.58235 
L 338.096195 213.129002 
" clip-path="url(#p56e74188ed)" style="fill: none; stroke: #ec4899; stroke-width: 1.4; stroke-linecap: square"/>
   </g>
   <g id="line2d_36">
    <g clip-path="url(#p56e74188ed)">
     <use xlink:href="#m7458bf4646" x="322.785557" y="215.855676" style="fill: #ec4899; stroke: #ec4899"/>
    </g>
   </g>
   <g id="line2d_37">
    <path d="M 296.639652 235.331917 
L 327.250541 235.331917 
" clip-path="url(#p56e74188ed)" style="fill: none; stroke: #10b981; stroke-width: 1.6"/>
   </g>
   <g id="line2d_38">
    <path d="M 296.639652 238.058591 
L 296.639652 232.605243 
" clip-path="url(#p56e74188ed)" style="fill: none; stroke: #10b981; stroke-width: 1.4; stroke-linecap: square"/>
   </g>
   <g id="line2d_39">
    <path d="M 327.250541 238.058591 
L 327.250541 232.605243 
" clip-path="url(#p56e74188ed)" style="fill: none; stroke: #10b981; stroke-width: 1.4; stroke-linecap: square"/>
   </g>
   <g id="line2d_40">
    <g clip-path="url(#p56e74188ed)">
     <use xlink:href="#m2a04d8fc8f" x="311.731419" y="235.331917" style="fill: #10b981; stroke: #10b981"/>
    </g>
   </g>
   <g id="line2d_41">
    <path d="M 344.960608 254.808159 
L 376.875825 254.808159 
" clip-path="url(#p56e74188ed)" style="fill: none; stroke: #f59e0b; stroke-width: 1.6"/>
   </g>
   <g id="line2d_42">
    <path d="M 344.960608 257.534832 
L 344.960608 252.081485 
" clip-path="url(#p56e74188ed)" style="fill: none; stroke: #f59e0b; stroke-width: 1.4; stroke-linecap: square"/>
   </g>
   <g id="line2d_43">
    <path d="M 376.875825 257.534832 
L 376.875825 252.081485 
" clip-path="url(#p56e74188ed)" style="fill: none; stroke: #f59e0b; stroke-width: 1.4; stroke-linecap: square"/>
   </g>
   <g id="line2d_44">
    <g clip-path="url(#p56e74188ed)">
     <use xlink:href="#mefc39786a8" x="360.796538" y="254.808159" style="fill: #f59e0b; stroke: #f59e0b"/>
    </g>
   </g>
   <g id="line2d_45">
    <path d="M 300.729958 305.446386 
L 336.506221 305.446386 
" clip-path="url(#p56e74188ed)" style="fill: none; stroke: #ef4444; stroke-width: 1.6"/>
   </g>
   <g id="line2d_46">
    <path d="M 300.729958 308.17306 
L 300.729958 302.719712 
" clip-path="url(#p56e74188ed)" style="fill: none; stroke: #ef4444; stroke-width: 1.4; stroke-linecap: square"/>
   </g>
   <g id="line2d_47">
    <path d="M 336.506221 308.17306 
L 336.506221 302.719712 
" clip-path="url(#p56e74188ed)" style="fill: none; stroke: #ef4444; stroke-width: 1.4; stroke-linecap: square"/>
   </g>
   <g id="line2d_48">
    <g clip-path="url(#p56e74188ed)">
     <use xlink:href="#m8cd1348903" x="318.400702" y="305.446386" style="fill: #ef4444; stroke: #ef4444"/>
    </g>
   </g>
   <g id="line2d_49">
    <path d="M 323.667721 324.922628 
L 359.523372 324.922628 
" clip-path="url(#p56e74188ed)" style="fill: none; stroke: #ec4899; stroke-width: 1.6"/>
   </g>
   <g id="line2d_50">
    <path d="M 323.667721 327.649301 
L 323.667721 322.195954 
" clip-path="url(#p56e74188ed)" style="fill: none; stroke: #ec4899; stroke-width: 1.4; stroke-linecap: square"/>
   </g>
   <g id="line2d_51">
    <path d="M 359.523372 327.649301 
L 359.523372 322.195954 
" clip-path="url(#p56e74188ed)" style="fill: none; stroke: #ec4899; stroke-width: 1.4; stroke-linecap: square"/>
   </g>
   <g id="line2d_52">
    <g clip-path="url(#p56e74188ed)">
     <use xlink:href="#m7458bf4646" x="341.521724" y="324.922628" style="fill: #ec4899; stroke: #ec4899"/>
    </g>
   </g>
   <g id="line2d_53">
    <path d="M 326.06344 344.398869 
L 363.131418 344.398869 
" clip-path="url(#p56e74188ed)" style="fill: none; stroke: #10b981; stroke-width: 1.6"/>
   </g>
   <g id="line2d_54">
    <path d="M 326.06344 347.125543 
L 326.06344 341.672195 
" clip-path="url(#p56e74188ed)" style="fill: none; stroke: #10b981; stroke-width: 1.4; stroke-linecap: square"/>
   </g>
   <g id="line2d_55">
    <path d="M 363.131418 347.125543 
L 363.131418 341.672195 
" clip-path="url(#p56e74188ed)" style="fill: none; stroke: #10b981; stroke-width: 1.4; stroke-linecap: square"/>
   </g>
   <g id="line2d_56">
    <g clip-path="url(#p56e74188ed)">
     <use xlink:href="#m2a04d8fc8f" x="344.544381" y="344.398869" style="fill: #10b981; stroke: #10b981"/>
    </g>
   </g>
   <g id="line2d_57">
    <path d="M 355.513938 363.87511 
L 391.252362 363.87511 
" clip-path="url(#p56e74188ed)" style="fill: none; stroke: #f59e0b; stroke-width: 1.6"/>
   </g>
   <g id="line2d_58">
    <path d="M 355.513938 366.601784 
L 355.513938 361.148437 
" clip-path="url(#p56e74188ed)" style="fill: none; stroke: #f59e0b; stroke-width: 1.4; stroke-linecap: square"/>
   </g>
   <g id="line2d_59">
    <path d="M 391.252362 366.601784 
L 391.252362 361.148437 
" clip-path="url(#p56e74188ed)" style="fill: none; stroke: #f59e0b; stroke-width: 1.4; stroke-linecap: square"/>
   </g>
   <g id="line2d_60">
    <g clip-path="url(#p56e74188ed)">
     <use xlink:href="#mefc39786a8" x="373.372392" y="363.87511" style="fill: #f59e0b; stroke: #f59e0b"/>
    </g>
   </g>
   <g id="line2d_61">
    <path d="M 143.954691 387.2466 
L 143.954691 48.36 
" clip-path="url(#p56e74188ed)" style="fill: none; stroke: #141414; stroke-width: 0.9; stroke-linecap: square"/>
   </g>
   <g id="patch_3">
    <path d="M 40.083333 387.2466 
L 440.73 387.2466 
" style="fill: none; stroke: #141414; stroke-width: 0.8; stroke-linejoin: miter; stroke-linecap: square"/>
   </g>
   <g id="text_8">
    <text style="font-weight: 700; font-size: 8.5px; font-family: 'Helvetica Neue'; text-anchor: start; fill: #141414" x="196.598179" y="89.509866" transform="rotate(-0 196.598179 89.509866)">+4.4</text>
   </g>
   <g id="text_9">
    <text style="font-size: 9px; font-family: 'Helvetica Neue'; text-anchor: end; fill: #141414" x="127.632049" y="89.639123" transform="rotate(-0 127.632049 89.639123)">Doofinder</text>
   </g>
   <g id="text_10">
    <text style="font-weight: 700; font-size: 8.5px; font-family: 'Helvetica Neue'; text-anchor: start; fill: #141414" x="257.88599" y="108.986107" transform="rotate(-0 257.88599 108.986107)">+12.4</text>
   </g>
   <g id="text_11">
    <text style="font-size: 9px; font-family: 'Helvetica Neue'; text-anchor: end; fill: #141414" x="127.632049" y="109.115365" transform="rotate(-0 127.632049 109.115365)">Clerk.io</text>
   </g>
   <g id="text_12">
    <text style="font-weight: 700; font-size: 8.5px; font-family: 'Helvetica Neue'; text-anchor: start; fill: #141414" x="294.423483" y="128.462348" transform="rotate(-0 294.423483 128.462348)">+17.1</text>
   </g>
   <g id="text_13">
    <text style="font-size: 9px; font-family: 'Helvetica Neue'; text-anchor: end; fill: #141414" x="127.632049" y="128.537466" transform="rotate(-0 127.632049 128.537466)">Luigi's Box</text>
   </g>
   <g id="text_14">
    <text style="font-weight: 700; font-size: 8.5px; font-family: 'Helvetica Neue'; text-anchor: start; fill: #141414" x="396.37322" y="147.93859" transform="rotate(-0 396.37322 147.93859)">+30.5</text>
   </g>
   <g id="text_15">
    <text style="font-size: 9px; font-family: 'Helvetica Neue'; text-anchor: end; fill: #141414" x="127.632049" y="148.013707" transform="rotate(-0 127.632049 148.013707)">Algolia</text>
   </g>
   <g id="text_16">
    <text style="font-weight: 700; font-size: 8.5px; font-family: 'Helvetica Neue'; text-anchor: start; fill: #141414" x="308.992182" y="198.576817" transform="rotate(-0 308.992182 198.576817)">+19.4</text>
   </g>
   <g id="text_17">
    <text style="font-size: 9px; font-family: 'Helvetica Neue'; text-anchor: end; fill: #141414" x="127.632049" y="198.706075" transform="rotate(-0 127.632049 198.706075)">Doofinder</text>
   </g>
   <g id="text_18">
    <text style="font-weight: 700; font-size: 8.5px; font-family: 'Helvetica Neue'; text-anchor: start; fill: #141414" x="344.773639" y="218.053059" transform="rotate(-0 344.773639 218.053059)">+24.1</text>
   </g>
   <g id="text_19">
    <text style="font-size: 9px; font-family: 'Helvetica Neue'; text-anchor: end; fill: #141414" x="127.632049" y="218.182316" transform="rotate(-0 127.632049 218.182316)">Clerk.io</text>
   </g>
   <g id="text_20">
    <text style="font-weight: 700; font-size: 8.5px; font-family: 'Helvetica Neue'; text-anchor: start; fill: #141414" x="333.927986" y="237.5293" transform="rotate(-0 333.927986 237.5293)">+22.6</text>
   </g>
   <g id="text_21">
    <text style="font-size: 9px; font-family: 'Helvetica Neue'; text-anchor: end; fill: #141414" x="127.632049" y="237.604417" transform="rotate(-0 127.632049 237.604417)">Luigi's Box</text>
   </g>
   <g id="text_22">
    <text style="font-weight: 700; font-size: 8.5px; font-family: 'Helvetica Neue'; text-anchor: start; fill: #141414" x="383.553269" y="257.005541" transform="rotate(-0 383.553269 257.005541)">+29.2</text>
   </g>
   <g id="text_23">
    <text style="font-size: 9px; font-family: 'Helvetica Neue'; text-anchor: end; fill: #141414" x="127.632049" y="257.080659" transform="rotate(-0 127.632049 257.080659)">Algolia</text>
   </g>
   <g id="text_24">
    <text style="font-weight: 700; font-size: 8.5px; font-family: 'Helvetica Neue'; text-anchor: start; fill: #141414" x="343.183666" y="307.643769" transform="rotate(-0 343.183666 307.643769)">+23.5</text>
   </g>
   <g id="text_25">
    <text style="font-size: 9px; font-family: 'Helvetica Neue'; text-anchor: end; fill: #141414" x="127.632049" y="307.773027" transform="rotate(-0 127.632049 307.773027)">Doofinder</text>
   </g>
   <g id="text_26">
    <text style="font-weight: 700; font-size: 8.5px; font-family: 'Helvetica Neue'; text-anchor: start; fill: #141414" x="366.200817" y="327.12001" transform="rotate(-0 366.200817 327.12001)">+26.6</text>
   </g>
   <g id="text_27">
    <text style="font-size: 9px; font-family: 'Helvetica Neue'; text-anchor: end; fill: #141414" x="127.632049" y="327.249268" transform="rotate(-0 127.632049 327.249268)">Clerk.io</text>
   </g>
   <g id="text_28">
    <text style="font-weight: 700; font-size: 8.5px; font-family: 'Helvetica Neue'; text-anchor: start; fill: #141414" x="369.808863" y="346.596252" transform="rotate(-0 369.808863 346.596252)">+27.0</text>
   </g>
   <g id="text_29">
    <text style="font-size: 9px; font-family: 'Helvetica Neue'; text-anchor: end; fill: #141414" x="127.632049" y="346.671369" transform="rotate(-0 127.632049 346.671369)">Luigi's Box</text>
   </g>
   <g id="text_30">
    <text style="font-weight: 700; font-size: 8.5px; font-family: 'Helvetica Neue'; text-anchor: start; fill: #141414" x="397.929807" y="366.072493" transform="rotate(-0 397.929807 366.072493)">+30.9</text>
   </g>
   <g id="text_31">
    <text style="font-size: 9px; font-family: 'Helvetica Neue'; text-anchor: end; fill: #141414" x="127.632049" y="366.14761" transform="rotate(-0 127.632049 366.14761)">Algolia</text>
   </g>
   <g id="text_32">
    <text style="font-weight: 700; font-size: 10px; font-family: 'Helvetica Neue'; text-anchor: end; fill: #141414" x="127.632049" y="70.421398" transform="rotate(-0 127.632049 70.421398)">Effective zero-result rate</text>
   </g>
   <g id="text_33">
    <text style="font-weight: 700; font-size: 10px; font-family: 'Helvetica Neue'; text-anchor: end; fill: #141414" x="127.632049" y="179.488349" transform="rotate(-0 127.632049 179.488349)">nDCG@10</text>
   </g>
   <g id="text_34">
    <text style="font-weight: 700; font-size: 10px; font-family: 'Helvetica Neue'; text-anchor: end; fill: #141414" x="127.632049" y="288.555301" transform="rotate(-0 127.632049 288.555301)">Recall@20</text>
   </g>
   <g id="text_35">
    <text style="font-size: 8px; font-family: 'Helvetica Neue'; text-anchor: start; fill: #555555" x="40.083333" y="36.498969" transform="rotate(-0 40.083333 36.498969)">For EZR (lower is better) the difference is plotted as rival minus Quissly, so right of zero still favors Quissly.</text>
   </g>
   <g id="text_36">
    <text style="font-size: 8px; font-family: 'Helvetica Neue'; fill: #555555" transform="translate(40.083333 432.066059)">7 sector/tier EZR cells vs Doofinder are within noise (see report Section 5.1); all pooled comparisons</text>
    <text style="font-size: 8px; font-family: 'Helvetica Neue'; fill: #555555" transform="translate(40.083333 440.573809)">shown here are significant after Holm correction.</text>
   </g>
   <g id="text_37">
    <text style="font-weight: 700; font-size: 12px; font-family: 'Helvetica Neue'; text-anchor: start; fill: #141414" x="40.083333" y="18.36" transform="rotate(-0 40.083333 18.36)">How large are the gaps, and how certain</text>
   </g>
  </g>
 </g>
 <defs>
  <clipPath id="p56e74188ed">
   <rect x="40.083333" y="48.36" width="400.646667" height="338.8866"/>
  </clipPath>
 </defs>
</svg>
